{
	"asset":{
		"version":"2.0",
		"generator":"Houdini GLTF 2.0 Exporter"
	},
	"accessors":[
		{
			"bufferView":0,
			"componentType":5123,
			"count":15198,
			"type":"SCALAR",
			"min":[0
			],
			"max":[15197
			]
		},
		{
			"bufferView":1,
			"componentType":5126,
			"count":15198,
			"type":"VEC3",
			"min":[-0.565514565,-0.902842522,-0.472559541
			],
			"max":[0.55925405,1.51292336,0.435850084
			]
		},
		{
			"bufferView":2,
			"componentType":5126,
			"count":15198,
			"type":"SCALAR",
			"min":[1
			],
			"max":[1
			]
		},
		{
			"bufferView":3,
			"componentType":5126,
			"count":15198,
			"type":"VEC2",
			"min":[0,-0.991938949
			],
			"max":[9.99708748,1
			]
		},
		{
			"bufferView":4,
			"componentType":5126,
			"count":15198,
			"type":"VEC3",
			"min":[-0.998708487,-0.999828637,-0.9991377
			],
			"max":[0.999968648,0.994619668,0.999061644
			]
		},
		{
			"bufferView":5,
			"componentType":5126,
			"count":15198,
			"type":"SCALAR",
			"min":[0.700425148
			],
			"max":[0.700425148
			]
		},
		{
			"bufferView":6,
			"componentType":5125,
			"count":15198,
			"type":"SCALAR",
			"min":[0
			],
			"max":[0
			]
		}
	],
	"buffers":[
		{
			"uri":"gnome_out_data.bin",
			"byteLength":699108,
			"name":"main_buffer"
		}
	],
	"bufferViews":[
		{
			"buffer":0,
			"byteLength":30396,
			"target":34963
		},
		{
			"buffer":0,
			"byteOffset":30396,
			"byteLength":182376,
			"target":34962
		},
		{
			"buffer":0,
			"byteOffset":212772,
			"byteLength":60792,
			"target":34962
		},
		{
			"buffer":0,
			"byteOffset":273564,
			"byteLength":121584,
			"target":34962
		},
		{
			"buffer":0,
			"byteOffset":395148,
			"byteLength":182376,
			"target":34962
		},
		{
			"buffer":0,
			"byteOffset":577524,
			"byteLength":60792,
			"target":34962
		},
		{
			"buffer":0,
			"byteOffset":638316,
			"byteLength":60792,
			"target":34962
		}
	],
	"nodes":[
		{
			"name":"geo1",
			"mesh":0
		}
	],
	"meshes":[
		{
			"primitives":[
				{
					"attributes":{
						"_numnonpacked":6,
						"NORMAL":4,
						"TEXCOORD_0":3,
						"_coverage":5,
						"_Alpha":2,
						"POSITION":1
					},
					"indices":0
				}
			]
		}
	],
	"scenes":[
		{
			"nodes":[0
			]
		}
	],
	"scene":0
}
